<svg xmlns="http://www.w3.org/2000/svg" width="80" height="61" viewBox="0 0 100 69" fill="none"><path d="M29.7747 40.0444C29.9044 43.2118 31.6752 45.3086 34.7858 45.3086C36.557 45.3086 38.2849 44.461 38.976 42.7658H45.8444C44.5053 48.1191 39.7104 50.4393 34.699 50.4393C27.3985 50.4393 22.4306 45.8888 22.4306 38.1266C22.4306 31.0333 27.9167 25.9478 34.5264 25.9478C42.5612 25.9478 46.5788 32.1934 46.2332 40.0448H29.7747V40.0444ZM38.8899 35.8064C38.7602 33.2189 36.9894 31.0777 34.5267 31.0777C31.9347 31.0777 30.2068 32.9959 29.7751 35.8064H38.8899Z" fill="#FF7705"></path><path d="M48.2542 18.0039H62.9453C68.3558 17.9133 74.2938 19.3667 74.2938 26.1354C74.2938 29.0426 72.6223 31.4049 70.1593 32.677C73.5023 33.6765 75.5694 36.6747 75.5694 40.3543C75.5694 48.077 70.0709 50.4393 63.3413 50.4393H48.2538V18.0039H48.2542ZM56.436 30.769H62.7701C64.1776 30.769 66.1127 29.9966 66.1127 27.6798C66.1127 25.3175 64.4852 24.5455 62.7701 24.5455H56.436V30.769ZM56.436 43.6702H62.9901C65.5855 43.6702 67.3886 42.7162 67.3886 40.0361C67.3886 37.1745 65.4531 36.2201 62.9901 36.2201H56.436V43.6702Z" fill="#53358E"></path></svg>